<svg xmlns="http://www.w3.org/2000/svg" viewBox="0 0 500 300" width="500" height="300" fill="currentColor">
	<path fill="#94A3B8" fill-opacity="0.55" d="M219.262 189.413C220.41 189.413 221.175 190.18 221.175 191.33C221.175 191.33 221.175 191.33 221.175 191.713C221.175 194.014 220.792 195.547 220.792 196.314C220.792 195.931 220.792 195.931 220.792 195.931C220.792 197.848 219.645 202.449 217.35 209.351C216.585 211.268 215.82 212.035 215.82 212.418C216.585 214.719 218.115 215.869 220.792 215.869H221.557C225.764 215.869 229.589 213.952 233.031 210.501C233.413 209.734 234.178 208.967 234.561 208.967C234.943 208.967 235.326 209.351 235.708 209.734C235.326 210.885 233.796 212.802 230.354 215.102C226.911 216.636 224.617 217.403 222.704 217.403C222.322 217.403 221.94 217.403 221.175 217.403C220.41 217.403 218.88 217.019 217.35 216.253C216.968 215.869 216.203 215.486 215.438 214.719C215.438 214.719 215.438 215.102 215.055 215.486C213.525 217.403 211.613 218.937 209.318 219.32C208.171 219.703 207.406 219.703 206.641 219.703C203.581 219.703 201.669 218.17 200.522 215.486C200.522 215.102 200.522 215.102 200.522 214.719V213.952C200.522 212.035 201.669 210.118 203.581 208.201C204.729 207.05 206.641 206.283 208.936 206.283H210.466C211.231 206.283 211.996 206.667 213.525 207.05C212.76 208.201 212.378 208.201 212.378 207.05C212.378 207.05 212.378 206.667 212.378 206.283C212.378 203.216 213.143 200.149 214.29 196.698L216.203 192.864C216.968 191.33 217.732 190.563 218.497 189.796C218.88 189.796 219.262 189.413 219.262 189.413ZM202.434 214.335C202.434 216.253 203.199 217.403 205.111 218.17C205.494 218.17 205.876 218.17 205.876 218.17C208.171 218.17 210.466 216.636 212.378 214.335C212.76 213.569 212.76 213.185 212.76 213.185C213.143 212.035 212.76 210.501 212.378 208.967C212.378 208.967 211.996 208.967 211.231 208.967C210.848 208.584 210.466 208.201 209.701 208.201C206.641 208.201 203.964 209.734 202.817 213.185C202.817 213.569 202.434 213.952 202.434 214.335ZM214.673 204.366C214.673 203.983 214.673 203.983 214.673 204.366C214.673 204.366 214.673 205.517 214.673 207.05C215.055 209.351 215.055 210.501 215.055 210.501C215.055 210.501 215.438 210.118 215.438 209.734C216.203 208.201 217.35 203.983 219.262 197.465L219.645 192.097V191.713C219.262 191.713 218.497 193.63 216.968 197.081C215.438 199.382 214.673 202.066 214.673 204.366ZM240.68 204.366C242.592 204.75 243.357 205.133 243.357 205.9C242.975 207.05 241.827 208.584 239.915 210.118C239.533 210.501 237.62 210.885 234.943 211.651C235.326 213.185 236.09 213.952 236.855 214.719C237.62 215.102 238.768 215.486 240.298 215.486H240.68C244.887 215.486 248.712 213.569 252.154 210.118C252.919 209.351 253.301 208.967 253.684 208.584C254.066 208.584 254.449 208.967 254.831 209.734C254.449 210.885 252.919 212.802 249.477 215.102C246.034 216.636 243.74 217.403 241.827 217.403C241.445 217.403 241.062 217.403 240.298 217.403C239.533 217.403 238.003 217.019 236.09 216.253C234.943 215.486 234.178 214.335 233.413 213.185C233.031 213.185 233.031 212.418 232.648 211.268C232.648 210.501 233.413 209.351 234.561 207.434C236.473 205.9 237.62 204.75 238.768 204.75C239.533 204.366 240.298 204.366 240.68 204.366ZM235.326 209.734C235.708 209.734 236.855 209.351 238.385 208.584C239.915 207.434 240.68 206.667 240.68 206.283C238.768 206.667 237.238 207.817 236.09 208.967C235.708 208.967 235.326 209.351 235.326 209.734ZM257.891 206.283C259.421 206.283 260.568 207.05 261.333 208.584C262.48 210.885 263.245 212.418 264.392 213.952H264.775C264.775 213.952 265.157 213.569 266.305 212.418C267.835 210.885 269.747 209.734 271.659 209.351C272.042 209.351 272.424 209.351 272.807 208.967C273.571 208.967 273.954 209.351 273.954 210.118C273.954 210.501 272.807 211.268 270.894 211.651C270.129 212.035 268.6 212.802 267.07 214.719C266.687 215.486 266.305 215.869 266.305 215.869C266.305 216.253 266.687 217.019 267.452 218.17C267.452 218.553 268.217 220.087 270.129 223.538C270.512 224.688 270.894 225.838 271.277 227.372C272.042 229.289 272.042 231.206 272.042 233.123C272.042 236.574 271.659 238.875 271.277 240.025C270.894 241.942 270.512 243.476 270.129 244.243C269.364 245.393 268.6 246.543 267.452 248.077C266.305 248.844 265.157 249.227 263.628 249.227C261.715 249.227 259.803 248.46 258.656 246.927C258.273 246.543 257.126 245.01 255.978 242.326C255.596 240.792 255.213 239.258 255.213 237.725C255.213 236.958 255.596 235.041 255.978 232.74C255.978 232.74 256.361 231.973 256.361 230.439C257.891 225.838 259.42 222.004 261.333 218.937C262.863 216.636 263.245 215.869 263.245 215.486C263.245 214.719 262.48 213.952 261.333 212.418H261.715L260.95 214.335C259.803 216.636 259.038 217.786 258.656 217.786C257.891 218.17 257.126 218.553 256.361 218.553H255.978C254.449 218.553 252.919 217.786 252.154 215.869C251.771 215.486 251.771 215.102 251.771 214.719V214.335C251.771 211.651 252.919 208.967 255.596 207.05C255.978 206.283 257.126 206.283 257.891 206.283ZM253.301 213.952C253.301 215.486 253.684 216.253 254.449 216.636C254.831 216.636 255.213 217.019 255.596 217.019C256.743 217.019 257.891 215.869 258.656 213.569C258.656 213.185 259.038 212.418 259.42 210.885C259.42 208.967 259.038 208.201 258.656 208.201C258.656 208.201 258.656 208.201 258.273 208.201H257.891C256.743 208.201 255.596 208.967 254.449 210.885C253.684 211.651 253.301 212.802 253.301 213.952ZM257.126 237.341C257.126 240.025 258.273 243.092 260.185 245.776C260.95 246.927 262.098 247.31 263.628 247.31C265.922 247.31 267.452 245.393 268.6 241.559C269.364 239.258 269.747 236.958 269.747 233.89C269.747 228.906 268.217 223.538 264.775 217.786C264.775 217.403 264.392 217.403 264.392 217.403C264.01 217.403 263.245 218.937 262.098 221.621C260.568 224.305 259.803 226.989 258.656 229.673C257.508 233.123 257.126 235.807 257.126 237.341ZM272.807 208.967C273.571 208.967 273.954 209.734 273.954 210.118V210.501C273.571 212.035 272.807 213.185 272.424 213.569C271.659 214.719 271.277 215.869 271.277 216.636C271.277 217.019 271.659 217.403 272.424 217.403C274.336 217.403 277.014 215.869 280.456 212.802C280.838 212.418 280.838 212.418 281.603 212.035C282.368 211.268 283.133 210.501 284.28 209.351H285.045C285.81 209.351 285.81 209.734 285.81 210.118C285.81 210.501 285.428 211.268 284.28 212.035C283.898 212.802 283.133 213.185 282.368 213.952C278.543 217.403 275.484 219.32 272.807 219.32C270.894 219.32 269.747 218.553 269.747 216.636C269.747 215.869 270.129 214.719 270.512 213.185C271.659 210.501 272.424 208.967 272.424 208.967C272.042 208.967 272.424 208.967 272.807 208.967ZM277.396 201.682C277.779 201.682 278.161 202.066 278.161 202.833C278.161 203.599 277.779 204.366 276.631 204.75C276.631 204.75 276.249 204.75 275.484 205.133C274.719 205.133 273.954 204.366 273.954 203.983C273.954 203.216 274.719 202.449 276.249 202.066C276.631 201.682 277.014 201.682 277.396 201.682ZM290.782 204.75H291.547C292.694 204.75 293.459 205.133 294.224 206.283C294.224 206.667 294.607 207.817 294.989 209.734C295.754 211.651 297.284 212.418 299.196 212.418C301.109 212.418 303.021 211.268 305.316 208.967C305.698 208.967 306.081 208.967 306.463 208.967C306.845 209.351 307.228 209.351 307.228 209.734C307.228 210.118 306.845 210.885 305.698 211.651C304.551 212.802 302.638 213.569 300.726 214.335C300.344 214.335 299.961 214.335 299.579 214.335H299.196C296.519 214.335 294.607 213.185 293.077 210.501C293.077 210.501 292.694 211.268 291.93 212.418C290.4 214.719 288.87 215.869 286.958 215.869C285.428 215.869 284.663 215.102 283.898 213.569C283.898 213.185 283.515 212.802 283.515 212.418C283.515 210.501 284.28 208.967 286.193 207.05C287.34 205.517 288.87 204.75 290.782 204.75ZM285.428 212.035C285.428 213.185 285.81 213.569 286.958 213.952H287.34C288.87 213.952 290.4 212.418 291.93 209.351C292.312 208.201 292.694 207.434 292.694 207.05V206.667C292.694 206.667 292.312 206.667 291.547 206.667C289.252 206.667 287.722 207.817 286.575 209.734C285.81 210.501 285.428 211.268 285.428 212.035ZM306.845 208.201C307.228 208.201 307.61 208.584 307.61 208.967C307.61 208.967 307.228 210.118 306.463 211.651C305.698 212.802 305.698 213.569 305.698 213.569V213.185C305.698 213.185 305.698 212.802 306.845 212.035C307.993 211.268 308.758 211.268 309.14 211.268H309.523C311.052 211.268 311.817 212.035 312.2 213.952C312.2 213.952 312.582 213.569 312.965 212.418C314.112 211.651 314.877 211.268 315.642 211.268C316.789 211.268 317.937 212.035 318.702 213.569C319.084 214.335 319.467 214.719 320.232 215.486C321.379 216.253 322.526 217.019 323.291 217.019C325.203 217.019 326.733 216.253 328.263 214.719C329.793 213.569 330.558 212.418 330.94 211.651C331.705 210.501 332.47 209.734 332.853 209.734C333.235 209.734 333.618 210.118 334 210.501C333.618 211.651 332.47 213.569 330.558 215.102C327.881 217.403 325.586 218.937 324.056 218.937H323.291C321.379 218.937 319.467 217.786 317.554 215.869C316.407 214.335 316.024 213.569 315.642 213.569C314.877 213.569 314.112 214.719 313.347 216.636C312.582 218.17 312.2 218.937 311.817 218.937H311.435C310.67 218.937 310.288 217.786 309.905 215.869C309.523 214.335 309.523 213.569 309.14 213.569C307.993 213.569 306.463 215.486 303.403 219.703C303.021 220.47 302.256 220.47 302.256 220.47C301.491 220.47 301.109 220.087 301.109 219.32C302.256 216.253 303.403 213.185 304.933 210.118C305.698 208.584 306.081 208.201 306.845 208.201Z" />
	<path fill="#94A3B8" fill-opacity="0.4" fill-rule="evenodd" clip-rule="evenodd" d="M190.165 204.192H188.226L185.454 210.986L182.285 204.192H180.304L184.53 213.251L181.54 220.581C180.856 220.692 180.154 220.749 179.438 220.749C172.219 220.749 166.367 214.897 166.367 207.678C166.367 204.048 167.847 200.763 170.236 198.394V212.68H172.031V211.403C172.905 212.329 174.143 212.906 175.517 212.906C178.164 212.906 180.31 210.76 180.31 208.113C180.31 205.466 178.164 203.321 175.517 203.321C174.143 203.321 172.905 203.898 172.031 204.824V196.906C174.136 195.456 176.688 194.606 179.438 194.606C186.657 194.606 192.509 200.459 192.509 207.678C192.509 213.405 188.827 218.271 183.7 220.039L186.48 213.225L186.496 213.218L186.489 213.203L190.165 204.192ZM178.712 208.113C178.712 209.878 177.281 211.309 175.517 211.309C173.752 211.309 172.321 209.878 172.321 208.113C172.321 206.349 173.752 204.918 175.517 204.918C177.281 204.918 178.712 206.349 178.712 208.113Z" />
	<path fill="url(#kiechat_logo)" d="M249 156.2C243.667 156.2 238.7 155.233 234.1 153.3C229.567 151.367 225.6 148.667 222.2 145.2C218.8 141.733 216.133 137.667 214.2 133C212.333 128.333 211.4 123.233 211.4 117.7C211.4 112.167 212.333 107.067 214.2 102.4C216.067 97.6667 218.7 93.6 222.1 90.2C225.5 86.7333 229.467 84.0667 234 82.2C238.6 80.2667 243.6 79.3 249 79.3C254.4 79.3 259.233 80.2 263.5 82C267.833 83.8 271.5 86.2 274.5 89.2C277.5 92.2 279.633 95.5333 280.9 99.2L267.2 105.8C265.933 102.2 263.7 99.2333 260.5 96.9C257.367 94.5 253.533 93.3 249 93.3C244.6 93.3 240.733 94.3333 237.4 96.4C234.067 98.4667 231.467 101.333 229.6 105C227.8 108.6 226.9 112.833 226.9 117.7C226.9 122.567 227.8 126.833 229.6 130.5C231.467 134.167 234.067 137.033 237.4 139.1C240.733 141.167 244.6 142.2 249 142.2C253.533 142.2 257.367 141.033 260.5 138.7C263.7 136.3 265.933 133.3 267.2 129.7L280.9 136.3C279.633 139.967 277.5 143.3 274.5 146.3C271.5 149.3 267.833 151.7 263.5 153.5C259.233 155.3 254.4 156.2 249 156.2ZM289.746 155V79.3H304.746V111.2L302.946 108.8C304.213 105.533 306.246 103.133 309.046 101.6C311.913 100 315.246 99.2 319.046 99.2C323.179 99.2 326.779 100.067 329.846 101.8C332.979 103.533 335.413 105.967 337.146 109.1C338.879 112.167 339.746 115.767 339.746 119.9V155H324.746V123.1C324.746 120.967 324.313 119.133 323.446 117.6C322.646 116.067 321.479 114.867 319.946 114C318.479 113.133 316.746 112.7 314.746 112.7C312.813 112.7 311.079 113.133 309.546 114C308.013 114.867 306.813 116.067 305.946 117.6C305.146 119.133 304.746 120.967 304.746 123.1V155H289.746ZM366.509 156.2C362.576 156.2 359.176 155.567 356.309 154.3C353.443 153.033 351.243 151.233 349.709 148.9C348.176 146.5 347.409 143.667 347.409 140.4C347.409 137.333 348.109 134.633 349.509 132.3C350.909 129.9 353.043 127.9 355.909 126.3C358.843 124.7 362.476 123.567 366.809 122.9L383.509 120.2V131.2L369.509 133.7C367.376 134.1 365.743 134.8 364.609 135.8C363.476 136.733 362.909 138.1 362.909 139.9C362.909 141.567 363.543 142.867 364.809 143.8C366.076 144.733 367.643 145.2 369.509 145.2C371.976 145.2 374.143 144.667 376.009 143.6C377.876 142.533 379.309 141.1 380.309 139.3C381.376 137.433 381.909 135.4 381.909 133.2V119C381.909 116.933 381.076 115.2 379.409 113.8C377.809 112.4 375.609 111.7 372.809 111.7C370.143 111.7 367.776 112.433 365.709 113.9C363.709 115.367 362.243 117.3 361.309 119.7L349.309 114C350.376 110.933 352.076 108.3 354.409 106.1C356.743 103.9 359.543 102.2 362.809 101C366.076 99.8 369.643 99.2 373.509 99.2C378.109 99.2 382.176 100.033 385.709 101.7C389.243 103.367 391.976 105.7 393.909 108.7C395.909 111.633 396.909 115.067 396.909 119V155H382.909V146.2L386.309 145.6C384.709 148 382.943 150 381.009 151.6C379.076 153.133 376.909 154.267 374.509 155C372.109 155.8 369.443 156.2 366.509 156.2ZM433.234 155.6C426.634 155.6 421.5 153.833 417.834 150.3C414.234 146.7 412.434 141.7 412.434 135.3V113.4H403.234V100.4H403.734C406.534 100.4 408.667 99.7 410.134 98.3C411.667 96.9 412.434 94.8 412.434 92V88H427.434V100.4H440.234V113.4H427.434V134.3C427.434 136.167 427.767 137.733 428.434 139C429.1 140.2 430.134 141.1 431.534 141.7C432.934 142.3 434.667 142.6 436.734 142.6C437.2 142.6 437.734 142.567 438.334 142.5C438.934 142.433 439.567 142.367 440.234 142.3V155C439.234 155.133 438.1 155.267 436.834 155.4C435.567 155.533 434.367 155.6 433.234 155.6Z" />
	<path d="M65.8 155V80.5H73.8V124L72 123.1L109.5 80.5H119.5L89.4 114.7L89.8 109L121.3 155H111.7L86.3 118.3L73.8 132.5V155H65.8ZM130.13 155V101.4H137.63V155H130.13ZM130.13 91.5V80.5H137.63V91.5H130.13ZM177.381 156.2C172.381 156.2 167.848 155 163.781 152.6C159.781 150.133 156.615 146.767 154.281 142.5C151.948 138.233 150.781 133.4 150.781 128C150.781 122.6 151.915 117.833 154.181 113.7C156.448 109.5 159.515 106.2 163.381 103.8C167.315 101.4 171.715 100.2 176.581 100.2C180.448 100.2 183.881 100.933 186.881 102.4C189.948 103.8 192.548 105.733 194.681 108.2C196.815 110.6 198.448 113.333 199.581 116.4C200.715 119.4 201.281 122.5 201.281 125.7C201.281 126.367 201.248 127.133 201.181 128C201.115 128.8 201.015 129.633 200.881 130.5H155.581V123.5H196.581L192.981 126.5C193.581 122.833 193.148 119.567 191.681 116.7C190.281 113.767 188.248 111.467 185.581 109.8C182.915 108.067 179.915 107.2 176.581 107.2C173.248 107.2 170.148 108.067 167.281 109.8C164.481 111.533 162.281 113.967 160.681 117.1C159.081 120.167 158.448 123.833 158.781 128.1C158.448 132.367 159.115 136.1 160.781 139.3C162.515 142.433 164.848 144.867 167.781 146.6C170.781 148.333 173.981 149.2 177.381 149.2C181.315 149.2 184.615 148.267 187.281 146.4C189.948 144.533 192.115 142.2 193.781 139.4L200.181 142.8C199.115 145.2 197.481 147.433 195.281 149.5C193.081 151.5 190.448 153.133 187.381 154.4C184.381 155.6 181.048 156.2 177.381 156.2Z" />
	<defs>
		<linearGradient id="kiechat_logo" x1="207" y1="51" x2="444" y2="177" gradientUnits="userSpaceOnUse">
			<stop stop-color="#22D3EE" />
			<stop stop-color="#2563EB" offset="1"/>
		</linearGradient>
	</defs>
</svg>